<svg width="99" height="103" viewBox="0 0 99 103" fill="none" xmlns="http://www.w3.org/2000/svg">
<g clip-path="url(#clip0_183_2112)">
<g filter="url(#filter0_d_183_2112)">
<path d="M2.11749 49.4016C2.11516 57.8035 4.31051 66.0074 8.48493 73.2384L1.71826 97.9446L27.002 91.3151C33.9951 95.1221 41.8304 97.117 49.7927 97.1175H49.8136C76.0985 97.1175 97.495 75.7287 97.5062 49.4392C97.5113 36.7 92.5547 24.7209 83.5493 15.7085C74.5454 6.6969 62.5706 1.7314 49.8117 1.72559C23.5237 1.72559 2.12873 23.1132 2.11787 49.4016" fill="url(#paint0_linear_183_2112)"/>
</g>
<g filter="url(#filter1_d_183_2112)">
<path d="M0.414729 49.386C0.412016 58.0903 2.68605 66.5876 7.0093 74.0775L0 99.6694L26.1903 92.8023C33.4066 96.7368 41.5314 98.8112 49.7988 98.8143H49.8202C77.0481 98.8143 99.2132 76.6562 99.2248 49.4256C99.2295 36.2287 94.0946 23.819 84.7674 14.4837C75.4391 5.14961 63.036 0.00542636 49.8202 0C22.5876 0 0.425581 22.155 0.414729 49.386ZM16.012 72.7876L15.0341 71.2353C10.9233 64.6988 8.75349 57.1454 8.75659 49.3891C8.76512 26.7554 27.1853 8.34109 49.8357 8.34109C60.8047 8.34574 71.1132 12.6217 78.8667 20.3798C86.6198 28.1388 90.886 38.4527 90.8833 49.4225C90.8733 72.0562 72.4527 90.4729 49.8202 90.4729H49.8039C42.4345 90.469 35.207 88.4899 28.9039 84.75L27.4039 83.8605L11.862 87.9353L16.012 72.7876Z" fill="url(#paint1_linear_183_2112)"/>
</g>
<g filter="url(#filter2_d_183_2112)">
<path d="M37.4721 28.7395C36.5473 26.6841 35.5741 26.6426 34.6946 26.6066C33.9744 26.5756 33.1512 26.5779 32.3287 26.5779C31.5055 26.5779 30.1679 26.8876 29.0372 28.1221C27.9055 29.3578 24.7163 32.3438 24.7163 38.4171C24.7163 44.4907 29.14 50.3601 29.7566 51.1845C30.3741 52.0074 38.2965 64.8694 50.8438 69.8175C61.2717 73.9295 63.3938 73.1116 65.657 72.9054C67.9206 72.7 72.9609 69.9202 73.9892 67.0376C75.0182 64.1554 75.0182 61.6849 74.7097 61.1686C74.4012 60.6543 73.5779 60.3454 72.3434 59.7283C71.1086 59.1109 65.0396 56.1244 63.9082 55.7124C62.7764 55.3008 61.9535 55.0954 61.1303 56.3314C60.307 57.5655 57.9431 60.3454 57.2225 61.1686C56.5027 61.9938 55.7822 62.0965 54.5481 61.4791C53.3128 60.8597 49.3372 59.5578 44.6206 55.3527C40.9508 52.0806 38.4733 48.0399 37.7531 46.8039C37.033 45.5698 37.676 44.9008 38.295 44.2857C38.8496 43.7326 39.5299 42.8442 40.1477 42.1237C40.7632 41.4027 40.9686 40.8884 41.3803 40.0651C41.7923 39.2411 41.5861 38.5202 41.2779 37.9027C40.9686 37.2853 38.5698 31.1802 37.4721 28.7395Z" fill="white"/>
</g>
</g>
<defs>
<filter id="filter0_d_183_2112" x="-2.28174" y="1.72559" width="103.788" height="104.219" filterUnits="userSpaceOnUse" color-interpolation-filters="sRGB">
<feFlood flood-opacity="0" result="BackgroundImageFix"/>
<feColorMatrix in="SourceAlpha" type="matrix" values="0 0 0 0 0 0 0 0 0 0 0 0 0 0 0 0 0 0 127 0" result="hardAlpha"/>
<feOffset dy="4"/>
<feGaussianBlur stdDeviation="2"/>
<feComposite in2="hardAlpha" operator="out"/>
<feColorMatrix type="matrix" values="0 0 0 0 0 0 0 0 0 0 0 0 0 0 0 0 0 0 0.25 0"/>
<feBlend mode="normal" in2="BackgroundImageFix" result="effect1_dropShadow_183_2112"/>
<feBlend mode="normal" in="SourceGraphic" in2="effect1_dropShadow_183_2112" result="shape"/>
</filter>
<filter id="filter1_d_183_2112" x="-4" y="0" width="107.225" height="107.669" filterUnits="userSpaceOnUse" color-interpolation-filters="sRGB">
<feFlood flood-opacity="0" result="BackgroundImageFix"/>
<feColorMatrix in="SourceAlpha" type="matrix" values="0 0 0 0 0 0 0 0 0 0 0 0 0 0 0 0 0 0 127 0" result="hardAlpha"/>
<feOffset dy="4"/>
<feGaussianBlur stdDeviation="2"/>
<feComposite in2="hardAlpha" operator="out"/>
<feColorMatrix type="matrix" values="0 0 0 0 0 0 0 0 0 0 0 0 0 0 0 0 0 0 0.25 0"/>
<feBlend mode="normal" in2="BackgroundImageFix" result="effect1_dropShadow_183_2112"/>
<feBlend mode="normal" in="SourceGraphic" in2="effect1_dropShadow_183_2112" result="shape"/>
</filter>
<filter id="filter2_d_183_2112" x="20.7163" y="26.5779" width="58.1733" height="54.5324" filterUnits="userSpaceOnUse" color-interpolation-filters="sRGB">
<feFlood flood-opacity="0" result="BackgroundImageFix"/>
<feColorMatrix in="SourceAlpha" type="matrix" values="0 0 0 0 0 0 0 0 0 0 0 0 0 0 0 0 0 0 127 0" result="hardAlpha"/>
<feOffset dy="4"/>
<feGaussianBlur stdDeviation="2"/>
<feComposite in2="hardAlpha" operator="out"/>
<feColorMatrix type="matrix" values="0 0 0 0 0 0 0 0 0 0 0 0 0 0 0 0 0 0 0.25 0"/>
<feBlend mode="normal" in2="BackgroundImageFix" result="effect1_dropShadow_183_2112"/>
<feBlend mode="normal" in="SourceGraphic" in2="effect1_dropShadow_183_2112" result="shape"/>
</filter>
<linearGradient id="paint0_linear_183_2112" x1="4791.12" y1="9623.63" x2="4791.12" y2="1.72559" gradientUnits="userSpaceOnUse">
<stop stop-color="#1FAF38"/>
<stop offset="1" stop-color="#60D669"/>
</linearGradient>
<linearGradient id="paint1_linear_183_2112" x1="4961.24" y1="9966.94" x2="4961.24" y2="0" gradientUnits="userSpaceOnUse">
<stop stop-color="#F9F9F9"/>
<stop offset="1" stop-color="white"/>
</linearGradient>
<clipPath id="clip0_183_2112">
<rect width="99" height="103" fill="white"/>
</clipPath>
</defs>
</svg>
